<?xml version="1.0" encoding="UTF-8"?>
<svg id="Camada_1" xmlns="http://www.w3.org/2000/svg" version="1.1" viewBox="0 0 3000 3000">
  <!-- Generator: Adobe Illustrator 30.3.0, SVG Export Plug-In . SVG Version: 2.1.3 Build 182)  -->
  <defs>
    <style>
      .st0 {
        fill: red;
      }
    </style>
  </defs>
  <path class="st0" d="M929.22,1640.11c-6.1-2.17-11.89-4.99-16.94-8.84-8.44-6.34-15.13-15.36-20.44-24.21-6.99-11.71-11.75-24.36-15.78-37.36-7.25-23.69-12.84-47.74-19.34-71.49-9.21-35.73-24.94-63.03-60.61-77.5-19.44-7.83-41.76-10.41-62.26-5.93-8.16,2.05-22.22,6.5-22.67,14.47.88,6.37,9.59,9.17,15.1,11.92,43.49,17.49,51.93,52.58,59.8,94.08,2.91,13.94,5.8,27.77,8.98,41.65,6.1,25.66,12.02,55.53,35.91,70.2-9.93-.84-17.79-1.88-22.01-3.29-9.45-3.17-17.63-8.68-22.68-12.54-8.44-6.34-15.13-15.36-20.44-24.21-6.99-11.71-11.75-24.36-15.78-37.36-7.25-23.69-12.84-47.74-19.34-71.49-9.21-35.73-24.94-63.03-60.61-77.5-19.44-7.83-41.76-10.41-62.26-5.93-8.16,2.05-22.22,6.5-22.67,14.47.88,6.37,9.59,9.17,15.1,11.92,43.49,17.49,51.93,52.58,59.8,94.08,2.91,13.94,5.8,27.77,8.98,41.65,6.09,25.62,12,55.44,35.79,70.13-9.54-.82-17.09-1.85-21.19-3.22-9.45-3.17-17.63-8.68-22.68-12.54-8.44-6.34-15.13-15.36-20.44-24.21-6.99-11.71-11.75-24.36-15.78-37.36-7.25-23.69-12.84-47.74-19.34-71.49-9.21-35.73-24.94-63.03-60.61-77.5-19.44-7.83-41.76-10.41-62.26-5.93-8.16,2.05-22.22,6.5-22.67,14.47.88,6.37,9.59,9.17,15.1,11.92,43.49,17.49,51.93,52.58,59.8,94.08,2.91,13.94,5.8,27.77,8.98,41.65,6.28,26.44,12.38,57.35,38.13,71.49l.21.12c10.11,5.65,21.72,8.17,33.1,10,16.43,2.49,32.88,4.19,49.48,4.67,15.66.46,128.24.87,152.94.71,34.76.81,90.46,1.86,112.2.91,4.88-.02,9.7-.51,14.06-2.03,3.79-1.36,6.54-3.46,7.57-5.84,3.18-10.25-14.49-13.7-22.21-16.81Z"/>
  <path d="M1343.93,1523.99l52.42-7.97c11.74-1.68,15.1-7.55,15.1-14.68,0-17.19-11.74-31.03-38.58-31.03s-39.84,16.36-41.94,36.9l-44.45-10.06c3.77-35.23,35.65-66.68,85.97-66.68,62.91,0,86.81,35.65,86.81,76.33v101.49c0,18.45,2.1,30.61,2.52,32.71h-45.29c-.42-1.26-2.1-9.65-2.1-26-9.65,15.52-29.78,32.29-62.91,32.29-42.78,0-69.2-29.36-69.2-61.65,0-36.49,26.84-56.62,61.65-61.65ZM1411.45,1556.28v-9.23l-53.26,7.97c-15.1,2.52-27.26,10.9-27.26,27.68,0,13.84,10.48,26.42,29.78,26.42,27.26,0,50.74-13,50.74-52.84Z"/>
  <path d="M1586.75,1641h-48.65l-83.04-204.24h53.68l54.1,145.94,52.84-145.94h51.16l-80.1,204.24Z"/>
  <path d="M1843.4,1582.7c-10.9,35.65-43.2,64.58-92.26,64.58-55.36,0-104.42-40.26-104.42-109.46,0-64.58,47.81-107.36,99.39-107.36,62.91,0,99.81,41.52,99.81,106.1,0,7.97-.84,14.68-1.26,15.52h-149.3c1.26,31.03,25.58,53.26,55.78,53.26s44.45-15.52,51.16-35.65l41.1,13ZM1796.85,1516.44c-.84-23.9-16.77-45.29-50.33-45.29-30.61,0-48.23,23.49-49.91,45.29h100.23Z"/>
  <path d="M1900.93,1575.15c18.87,0,34.39,15.52,34.39,34.39s-15.52,33.97-34.39,33.97-33.97-15.1-33.97-33.97,15.1-34.39,33.97-34.39Z"/>
  <path d="M1143.88,1436.76l48.23,141.33,40.68-141.33h49.49l-65.42,204.24h-48.65l-50.74-146.78-49.49,146.78h-49.91l-66.26-204.24h52l41.52,141.33,48.23-141.33h50.33Z"/>
  <g>
    <path d="M1999.81,1577.47c1.72,18.93,15.92,35.71,42.59,35.71,20.65,0,31.41-11.19,31.41-24.09,0-11.18-7.74-19.79-24.52-23.23l-30.97-6.88c-37-8.17-56.36-32.27-56.36-61.09,0-36.57,33.56-67.54,77.01-67.54,58.51,0,77.44,37.86,80.88,58.51l-42.16,12.04c-1.72-12.04-10.75-31.4-38.72-31.4-17.64,0-30.11,11.18-30.11,24.09,0,11.19,8.17,19.36,21.08,21.94l31.83,6.45c39.58,8.6,60.23,32.7,60.23,63.67s-25.81,67.11-79.16,67.11c-60.66,0-83.89-39.58-86.47-63.24l43.45-12.05Z"/>
    <path d="M2181.78,1646.3h-49.9v-209.51h48.61v27.96c13.77-24.09,38.72-33.99,61.95-33.99,51.2,0,75.72,37,75.72,83.03v132.5h-49.9v-123.9c0-25.81-11.62-46.46-43.02-46.46-28.39,0-43.45,21.94-43.45,49.47v120.89Z"/>
    <path d="M2537.98,1608.01c0,18.93,1.72,34.85,2.15,38.29h-47.75c-.86-4.73-2.15-18.5-2.15-27.1-9.89,17.64-31.83,32.26-61.52,32.26-60.23,0-100.67-47.32-100.67-110.56s40.87-109.7,99.81-109.7c36.57,0,55.07,16.78,61.52,30.12v-126.48h48.61v273.18ZM2434.3,1607.58c32.7,0,55.5-27.1,55.5-67.11s-22.37-64.96-55.07-64.96-56.79,25.38-56.79,65.39,22.37,66.68,56.36,66.68Z"/>
  </g>
</svg>