<?xml version="1.0" encoding="UTF-8"?>
<svg id="Camada_1" xmlns="http://www.w3.org/2000/svg" version="1.1" viewBox="0 0 3000 3000">
  <!-- Generator: Adobe Illustrator 30.3.0, SVG Export Plug-In . SVG Version: 2.1.3 Build 182)  -->
  <defs>
    <style>
      .st0 {
        fill: red;
      }
    </style>
  </defs>
  <path class="st0" d="M2247.62,1880.35c-20.42-7.26-39.8-16.69-56.7-29.6-28.23-21.23-50.63-51.41-68.42-81.02-23.39-39.19-39.32-81.53-52.83-125.04-24.25-79.28-42.98-159.77-64.71-239.26-30.82-119.58-83.46-210.93-202.84-259.36-65.06-26.2-139.77-34.85-208.36-19.85-27.3,6.85-74.36,21.76-75.88,48.42,2.94,21.3,32.1,30.7,50.53,39.89,145.54,58.54,173.79,175.96,200.12,314.86,9.73,46.67,19.42,92.95,30.05,139.4,20.41,85.87,40.23,185.85,120.17,234.93-33.22-2.8-59.55-6.28-73.66-11.01-31.62-10.59-59-29.05-75.89-41.97-28.23-21.23-50.63-51.41-68.42-81.02-23.39-39.19-39.32-81.53-52.83-125.04-24.25-79.28-42.98-159.77-64.71-239.26-30.82-119.57-83.46-210.93-202.84-259.36-65.06-26.2-139.77-34.85-208.36-19.85-27.3,6.85-74.36,21.76-75.88,48.42,2.94,21.3,32.1,30.7,50.53,39.89,145.54,58.54,173.79,175.96,200.12,314.86,9.73,46.67,19.42,92.95,30.05,139.4,20.38,85.73,40.16,185.53,119.78,234.7-31.93-2.76-57.2-6.18-70.91-10.77-31.62-10.59-59-29.05-75.89-41.97-28.23-21.23-50.63-51.41-68.42-81.02-23.39-39.19-39.32-81.53-52.83-125.04-24.25-79.28-42.98-159.77-64.71-239.26-30.82-119.57-83.46-210.93-202.84-259.36-65.06-26.2-139.77-34.85-208.36-19.85-27.3,6.85-74.36,21.76-75.88,48.42,2.94,21.3,32.1,30.7,50.53,39.89,145.54,58.54,173.79,175.96,200.12,314.86,9.73,46.67,19.42,92.95,30.05,139.4,21.03,88.48,41.42,191.95,127.62,239.28l.69.39c33.85,18.9,72.7,27.34,110.78,33.46,54.98,8.32,110.03,14.02,165.61,15.63,52.41,1.52,429.2,2.93,511.84,2.37,116.35,2.72,302.74,6.22,375.5,3.03,16.34-.06,32.48-1.69,47.04-6.8,12.69-4.56,21.88-11.58,25.35-19.55,10.65-34.31-48.51-45.84-74.33-56.24Z"/>
</svg>