<svg xmlns="http://www.w3.org/2000/svg" viewBox="0 0 158 126" width="1580" height="1260" fill-rule="evenodd">
  <title>Ultra Park Estacionamentos</title>
    <path fill="#f2eee6" d="M 29.00 41.00 a 50.50 41.00 0 1 0 101.00 0 a 50.50 41.00 0 1 0 -101.00 0 Z M 83.88 5.12 C 81.65 5.26 78.85 5.61 75.25 6.22 C 71.65 6.83 65.21 8.27 62.25 8.79 C 59.29 9.31 59.08 9.08 57.5 9.33 C 55.92 9.59 54.53 9.82 52.75 10.31 C 50.97 10.79 48.85 11.42 46.83 12.25 C 44.81 13.08 42.06 14.48 40.62 15.29 C 39.19 16.1 39.11 16.24 38.23 17.12 C 37.35 18.01 36.33 19.21 35.34 20.62 C 34.35 22.04 33.15 23.92 32.29 25.62 C 31.43 27.33 30.73 29.27 30.19 30.88 C 29.65 32.48 29.22 34.39 29.06 35.25 C 28.9 36.11 29.09 35.88 29.25 36.05 C 29.41 36.22 29.38 36.28 30 36.25 C 30.62 36.21 31.44 36.23 33 35.83 C 34.56 35.43 34.73 35.62 39.38 33.87 C 44.02 32.12 55.33 27.44 60.88 25.34 C 66.42 23.24 70.35 21.97 72.62 21.25 C 74.9 20.53 74.07 20.98 74.5 21.02 C 74.93 21.06 75.09 21.19 75.18 21.5 C 75.27 21.81 75.39 22.29 75.03 22.88 C 74.66 23.46 75.8 22.42 73 24.99 C 70.2 27.55 62.83 34.01 58.25 38.25 C 53.66 42.49 48.33 47.61 45.5 50.45 C 42.67 53.29 42.46 53.73 41.25 55.29 C 40.04 56.84 38.92 58.62 38.25 59.78 C 37.58 60.94 37.36 61.57 37.21 62.25 C 37.06 62.93 36.49 62.77 37.35 63.88 C 38.2 64.98 40.35 67.21 42.34 68.88 C 44.32 70.54 47.91 73 49.27 73.88 C 50.63 74.75 50.02 74.16 50.5 74.15 C 50.98 74.14 51.19 74.2 52.12 73.81 C 53.06 73.42 54.38 72.8 56.12 71.81 C 57.88 70.81 58.69 70.5 62.62 67.84 C 66.56 65.17 74.06 59.96 79.75 55.8 C 85.44 51.64 93.65 45.27 96.75 42.86 C 99.85 40.45 97.83 41.76 98.38 41.35 C 98.92 40.93 99.66 40.52 100 40.38 C 100.34 40.24 100.44 40.5 100.44 40.5 C 100.44 40.5 101.88 38.94 99.85 41.75 C 97.82 44.56 90.52 54.19 88.26 57.38 C 85.99 60.56 86.76 59.88 86.26 60.88 C 85.77 61.88 85.56 62.15 85.28 63.38 C 84.99 64.6 84.6 67 84.56 68.25 C 84.51 69.5 84.73 70.08 85 70.88 C 85.27 71.67 85.63 72.34 86.2 73 C 86.76 73.66 87.49 74.35 88.38 74.84 C 89.26 75.33 90.04 75.78 91.5 75.96 C 92.96 76.15 95.46 76.15 97.12 75.96 C 98.79 75.76 99.92 75.32 101.5 74.8 C 103.08 74.28 104.44 73.82 106.62 72.83 C 108.81 71.83 112.48 70 114.62 68.82 C 116.77 67.64 118.15 66.91 119.52 65.75 C 120.9 64.59 121.84 63.22 122.88 61.87 C 123.91 60.51 125.28 58.47 125.74 57.62 C 126.2 56.78 125.62 56.8 125.62 56.8 C 125.62 56.8 126.02 56.26 124.38 57.27 C 122.73 58.28 117.81 61.6 115.75 62.87 C 113.69 64.14 113.44 64.21 112 64.88 C 110.56 65.55 108.46 66.49 107.12 66.91 C 105.79 67.32 104.94 67.34 104 67.36 C 103.06 67.37 102.16 67.23 101.5 66.99 C 100.84 66.74 100.45 66.35 100.06 65.88 C 99.66 65.4 99.27 64.75 99.13 64.12 C 99 63.5 99.06 62.89 99.25 62.11 C 99.44 61.34 99.45 61 100.28 59.5 C 101.12 58 102.4 55.64 104.25 53.13 C 106.1 50.63 107.62 48.8 111.38 44.45 C 115.13 40.09 124.2 30.02 126.76 27 C 129.32 23.98 127.23 27.24 126.75 26.3 C 126.27 25.36 124.71 22.64 123.88 21.34 C 123.04 20.04 122.48 19.36 121.75 18.5 C 121.02 17.64 119.5 16.18 119.5 16.18 C 119.5 16.18 121.33 14.4 116.38 18.33 C 111.42 22.27 96.5 34.55 89.75 39.8 C 83 45.04 79.73 47.15 75.88 49.82 C 72.02 52.49 69.09 54.32 66.62 55.83 C 64.16 57.34 62.56 58.17 61.08 58.88 C 59.6 59.58 58.55 59.86 57.75 60.05 C 56.95 60.24 56.65 60.08 56.25 60.01 C 55.85 59.94 55.61 59.85 55.38 59.62 C 55.14 59.39 54.89 59.02 54.84 58.62 C 54.79 58.23 54.51 58.17 55.07 57.25 C 55.63 56.33 56.13 55.44 58.2 53.12 C 60.26 50.81 63.03 47.73 67.48 43.38 C 71.92 39.02 81.16 30.6 84.89 27 C 88.62 23.4 88.71 23.11 89.88 21.75 C 91.04 20.4 91.37 19.69 91.88 18.85 C 92.38 18.02 92.64 17.52 92.88 16.75 C 93.12 15.98 93.24 15.02 93.32 14.25 C 93.4 13.48 93.45 12.96 93.36 12.12 C 93.27 11.29 93.08 10.02 92.8 9.25 C 92.53 8.48 92.08 7.96 91.72 7.5 C 91.35 7.04 91.15 6.82 90.62 6.47 C 90.1 6.12 89.71 5.6 88.58 5.38 C 87.46 5.15 86.1 4.98 83.88 5.12 Z"/>
  <path fill="#f2eee6" d="M 18.17 87.06 C 17.56 87.08 17.29 87.09 16.44 87.22 C 15.59 87.35 14.09 87.6 13.06 87.82 C 12.02 88.05 11.14 88.28 10.22 88.56 C 9.31 88.83 8.36 89.13 7.55 89.45 C 6.74 89.77 5.91 90.19 5.35 90.48 C 4.79 90.76 4.64 90.85 4.2 91.17 C 3.77 91.48 3.25 91.89 2.73 92.37 C 2.21 92.86 1.49 93.6 1.09 94.06 C 0.68 94.53 0.43 94.88 0.28 95.15 C 0.13 95.42 0.15 95.57 0.17 95.69 C 0.19 95.82 0.29 95.86 0.39 95.91 C 0.5 95.96 0.54 96.01 0.79 96.01 C 1.04 96 1.09 96.09 1.89 95.89 C 2.69 95.69 4.13 95.31 5.58 94.8 C 7.04 94.28 9.29 93.29 10.62 92.78 C 11.94 92.27 12.77 91.99 13.53 91.74 C 14.29 91.5 14.82 91.4 15.18 91.33 C 15.53 91.26 15.55 91.29 15.65 91.32 C 15.75 91.34 15.78 91.47 15.78 91.47 C 15.78 91.47 15.67 91.73 15.44 91.95 C 15.2 92.17 16.09 91.55 14.39 92.8 C 12.7 94.05 7.09 98.09 5.27 99.44 C 3.44 100.8 4.06 100.39 3.44 100.94 C 2.82 101.5 2.04 102.22 1.55 102.76 C 1.07 103.29 0.76 103.69 0.53 104.14 C 0.29 104.6 0.19 105.16 0.13 105.47 C 0.06 105.78 0.1 105.84 0.13 106.02 C 0.16 106.19 0.21 106.34 0.31 106.5 C 0.4 106.65 0.55 106.82 0.71 106.95 C 0.87 107.07 1.01 107.16 1.26 107.23 C 1.51 107.3 1.87 107.37 2.2 107.37 C 2.53 107.37 2.74 107.4 3.22 107.24 C 3.71 107.07 3.22 107.48 5.11 106.39 C 7 105.3 11.39 102.69 14.55 100.72 C 17.71 98.74 24.07 94.54 24.07 94.54 C 24.07 94.54 18.72 99.16 17.28 100.46 C 15.83 101.76 15.94 101.74 15.39 102.33 C 14.84 102.93 14.33 103.52 13.97 104.02 C 13.6 104.53 13.36 104.95 13.2 105.35 C 13.03 105.75 12.96 106.11 12.97 106.44 C 12.98 106.77 13.15 107.14 13.27 107.34 C 13.39 107.55 13.5 107.57 13.68 107.67 C 13.87 107.77 14.01 107.87 14.39 107.92 C 14.77 107.97 15.35 108.05 15.97 107.96 C 16.58 107.87 17.22 107.7 18.09 107.36 C 18.95 107.02 20.08 106.48 21.16 105.91 C 22.23 105.34 24.54 103.94 24.54 103.94 C 24.54 103.94 24.32 105.37 24.36 105.9 C 24.39 106.42 24.59 106.82 24.74 107.1 C 24.9 107.38 25.09 107.47 25.28 107.59 C 25.47 107.7 25.63 107.75 25.87 107.78 C 26.12 107.82 26.48 107.81 26.74 107.79 C 27 107.77 27.08 107.77 27.45 107.66 C 27.81 107.55 28.4 107.37 28.94 107.13 C 29.48 106.88 30.07 106.57 30.67 106.22 C 31.27 105.86 31.9 105.46 32.56 105 C 33.21 104.55 33.99 103.89 34.6 103.48 C 35.22 103.07 36.26 102.55 36.26 102.55 C 36.26 102.55 34.68 104.56 34.26 105.23 C 33.83 105.9 33.78 106.21 33.7 106.56 C 33.62 106.91 33.69 107.12 33.79 107.34 C 33.89 107.57 34.1 107.79 34.29 107.91 C 34.48 108.04 34.66 108.07 34.92 108.09 C 35.18 108.11 35.31 108.17 35.86 108.03 C 36.41 107.89 37.3 107.65 38.22 107.24 C 39.14 106.84 39.95 106.44 41.37 105.61 C 42.78 104.78 45.44 103.16 46.72 102.29 C 47.99 101.42 47.95 100.78 49 100.36 C 50.05 99.94 53.01 99.78 53.01 99.78 C 53.01 99.78 50.24 102.06 49.52 102.7 C 48.8 103.33 48.92 103.3 48.67 103.6 C 48.42 103.9 48.2 104.17 48.03 104.51 C 47.85 104.84 47.7 105.27 47.63 105.59 C 47.56 105.92 47.57 106.2 47.63 106.44 C 47.68 106.68 47.81 106.88 47.97 107.03 C 48.14 107.18 48.29 107.31 48.6 107.34 C 48.92 107.38 49.44 107.34 49.86 107.24 C 50.28 107.14 50.54 107.03 51.12 106.76 C 51.7 106.49 52.47 106.1 53.32 105.61 C 54.17 105.12 56.23 103.83 56.23 103.83 C 56.23 103.83 56.13 104.66 56.21 105.11 C 56.29 105.56 56.49 106.13 56.7 106.5 C 56.92 106.86 57.31 107.16 57.49 107.31 C 57.67 107.46 57.65 107.4 57.8 107.4 C 57.96 107.4 58.19 107.38 58.43 107.31 C 58.68 107.24 58.93 107.17 59.3 107 C 59.67 106.83 59.55 106.96 60.64 106.28 C 61.72 105.6 65.83 102.92 65.83 102.92 C 65.83 102.92 64.6 104.59 64.23 105.23 C 63.86 105.87 63.71 106.39 63.6 106.74 C 63.5 107.09 63.56 107.18 63.61 107.34 C 63.65 107.5 63.75 107.62 63.86 107.7 C 63.97 107.79 64.06 107.83 64.25 107.85 C 64.45 107.88 64.66 107.92 65.04 107.85 C 65.42 107.77 65.98 107.63 66.53 107.42 C 67.09 107.2 67.56 107 68.34 106.58 C 69.13 106.15 70.42 105.4 71.25 104.89 C 72.08 104.37 72.93 103.85 73.31 103.48 C 73.69 103.11 73.53 102.67 73.53 102.67 C 73.53 102.67 71.87 103.55 71.17 103.86 C 70.48 104.18 69.8 104.4 69.37 104.53 C 68.93 104.66 68.8 104.64 68.58 104.65 C 68.36 104.66 68.17 104.63 68.03 104.59 C 67.88 104.56 67.8 104.51 67.71 104.43 C 67.63 104.36 67.53 104.32 67.52 104.14 C 67.5 103.97 67.51 103.63 67.62 103.36 C 67.73 103.09 67.6 103.04 68.16 102.51 C 68.72 101.99 70.41 100.7 70.97 100.22 C 71.53 99.74 71.43 99.82 71.53 99.62 C 71.64 99.42 71.63 99.31 71.6 99.01 C 71.57 98.72 71.33 97.86 71.33 97.86 C 71.33 97.86 72.12 97.64 72.35 97.53 C 72.59 97.42 72.69 97.32 72.77 97.2 C 72.84 97.09 72.84 97 72.82 96.84 C 72.79 96.68 72.72 96.41 72.62 96.24 C 72.52 96.06 72.35 95.9 72.2 95.81 C 72.05 95.72 72.01 95.7 71.73 95.69 C 71.44 95.69 71.02 95.7 70.47 95.8 C 69.92 95.9 69.12 96.09 68.42 96.28 C 67.73 96.47 66.97 96.71 66.3 96.94 C 65.63 97.17 65.3 97.27 64.41 97.67 C 63.52 98.08 61.92 98.84 60.95 99.36 C 59.98 99.87 59.19 100.37 58.59 100.75 C 58 101.14 57.73 101.33 57.39 101.67 C 57.05 102 57.03 102.42 56.55 102.76 C 56.07 103.11 55.12 103.48 54.5 103.74 C 53.89 104.01 53.26 104.23 52.85 104.35 C 52.44 104.47 52.3 104.47 52.06 104.48 C 51.83 104.48 51.58 104.44 51.43 104.39 C 51.28 104.35 51.22 104.29 51.16 104.2 C 51.11 104.12 51.03 104.09 51.09 103.9 C 51.16 103.71 51.17 103.5 51.56 103.06 C 51.96 102.62 52.59 101.94 53.45 101.25 C 54.31 100.55 56.15 99.35 56.74 98.89 C 57.32 98.44 56.91 98.72 56.97 98.53 C 57.03 98.34 57.1 97.99 57.1 97.75 C 57.1 97.5 57.06 97.24 56.97 97.08 C 56.88 96.93 56.95 96.84 56.55 96.81 C 56.15 96.78 55.52 96.8 54.58 96.88 C 53.64 96.96 50.88 97.28 50.88 97.28 C 50.88 97.28 51.64 96.45 51.79 96.24 C 51.93 96.02 51.75 96.01 51.75 96.01 C 51.75 96.01 51.71 95.92 51.51 95.94 C 51.32 95.96 50.9 96.03 50.57 96.15 C 50.24 96.27 49.98 96.38 49.55 96.65 C 49.11 96.92 48.39 97.41 47.95 97.75 C 47.51 98.08 47.23 98.34 46.93 98.65 C 46.62 98.96 46.3 99.36 46.13 99.62 C 45.95 99.88 45.9 100.03 45.89 100.22 C 45.88 100.41 45.92 100.6 46.06 100.76 C 46.2 100.92 46.74 101.19 46.74 101.19 C 46.74 101.19 45.71 102.09 44.99 102.53 C 44.26 102.98 43.15 103.49 42.39 103.86 C 41.63 104.22 40.95 104.51 40.42 104.72 C 39.9 104.92 39.6 105.02 39.24 105.07 C 38.89 105.12 38.5 105.05 38.3 105 C 38.1 104.95 38.08 104.88 38.04 104.75 C 37.99 104.62 37.9 104.56 38.03 104.2 C 38.16 103.85 38.44 103.19 38.82 102.64 C 39.21 102.08 39.6 101.62 40.32 100.88 C 41.05 100.15 42.64 98.7 43.16 98.23 C 43.67 97.76 42.95 98.08 43.41 98.08 C 43.87 98.08 45.15 98.5 45.93 98.24 C 46.71 97.99 47.43 97.08 48.08 96.54 C 48.72 95.99 49.82 94.97 49.82 94.97 C 49.82 94.97 49.78 94.89 49.78 94.89 C 49.78 94.89 47.96 94.73 47.96 94.73 C 47.96 94.73 50.27 92.9 50.75 92.49 C 51.23 92.09 50.85 92.37 50.84 92.31 C 50.84 92.25 50.89 92.18 50.73 92.13 C 50.56 92.07 50.18 91.98 49.86 91.98 C 49.55 91.98 49.21 92.01 48.84 92.11 C 48.47 92.22 48.06 92.38 47.66 92.61 C 47.26 92.83 46.87 93.12 46.45 93.46 C 46.03 93.8 45.88 94.41 45.14 94.63 C 44.4 94.85 42.69 94.71 42 94.77 C 41.3 94.83 41.33 94.88 40.97 95.01 C 40.62 95.14 40.36 95.21 39.87 95.56 C 39.38 95.9 38.44 96.73 38.04 97.08 C 37.64 97.44 37.62 97.5 37.49 97.69 C 37.35 97.87 37.23 98.17 37.23 98.17 C 37.23 98.17 37.07 98.27 37.36 98.24 C 37.64 98.2 38.34 98.02 38.93 97.98 C 39.52 97.94 40.56 97.98 40.9 97.99 C 41.23 98 40.95 98.05 40.95 98.05 C 40.95 98.05 41.29 97.82 40.52 98.41 C 39.75 99 37.84 100.56 36.33 101.56 C 34.82 102.56 32.57 103.8 31.46 104.4 C 30.34 105.01 30.03 105.05 29.65 105.19 C 29.27 105.33 29.4 105.27 29.18 105.25 C 28.95 105.23 28.54 105.17 28.31 105.06 C 28.09 104.95 27.93 104.76 27.82 104.57 C 27.72 104.37 27.66 104.19 27.67 103.9 C 27.68 103.61 27.77 103.17 27.9 102.82 C 28.03 102.46 27.88 102.28 28.44 101.79 C 29.01 101.3 30.38 100.53 31.3 99.88 C 32.23 99.22 33.17 98.52 34 97.87 C 34.83 97.21 35.59 96.57 36.28 95.93 C 36.98 95.3 37.61 94.68 38.17 94.06 C 38.73 93.45 39.27 92.8 39.66 92.25 C 40.05 91.71 40.31 91.3 40.52 90.8 C 40.73 90.31 40.89 89.59 40.93 89.29 C 40.96 89 40.82 89.08 40.74 89.03 C 40.65 88.98 40.73 88.9 40.42 88.97 C 40.12 89.04 39.56 89.16 38.93 89.45 C 38.3 89.74 37.51 90.16 36.65 90.73 C 35.79 91.3 34.61 92.2 33.78 92.86 C 32.95 93.51 32.41 93.99 31.68 94.67 C 30.94 95.34 30.08 96.18 29.38 96.9 C 28.69 97.62 28.05 98.35 27.5 99.01 C 26.95 99.68 26.52 100.25 26.09 100.88 C 25.66 101.52 25.91 102.15 24.93 102.82 C 23.95 103.5 21.23 104.51 20.21 104.94 C 19.19 105.36 19.19 105.3 18.8 105.37 C 18.4 105.45 18.09 105.44 17.85 105.38 C 17.61 105.31 17.42 105.19 17.35 104.99 C 17.28 104.78 17.31 104.47 17.44 104.14 C 17.57 103.82 17.85 103.44 18.14 103.06 C 18.42 102.68 18.42 102.62 19.17 101.85 C 19.92 101.09 20.81 100.09 22.64 98.47 C 24.47 96.85 28.72 93.36 30.14 92.13 C 31.56 90.9 30.92 91.42 31.15 91.1 C 31.39 90.79 31.48 90.56 31.56 90.26 C 31.65 89.96 31.68 89.56 31.66 89.29 C 31.63 89.03 31.52 88.82 31.41 88.69 C 31.3 88.56 31.16 88.52 30.99 88.51 C 30.81 88.51 30.66 88.53 30.36 88.67 C 30.06 88.8 30.95 88.16 29.18 89.34 C 27.41 90.53 22.49 93.96 19.74 95.77 C 16.99 97.58 14.8 98.92 12.66 100.18 C 10.53 101.44 8.01 102.75 6.92 103.32 C 5.83 103.88 6.38 103.52 6.13 103.56 C 5.89 103.6 5.43 103.55 5.43 103.55 C 5.43 103.55 5.25 103.4 5.24 103.3 C 5.22 103.2 5.18 103.15 5.33 102.94 C 5.47 102.73 5.34 102.72 6.11 102.03 C 6.88 101.35 8.2 100.22 9.95 98.83 C 11.71 97.44 15.18 94.84 16.62 93.7 C 18.06 92.56 18.03 92.52 18.58 92.01 C 19.14 91.5 19.62 90.97 19.93 90.62 C 20.23 90.27 20.24 90.2 20.4 89.9 C 20.55 89.6 20.76 89.1 20.87 88.81 C 20.98 88.52 21.03 88.34 21.06 88.15 C 21.08 87.96 21.07 87.79 21.02 87.66 C 20.97 87.53 20.91 87.46 20.75 87.36 C 20.59 87.27 20.49 87.15 20.05 87.1 C 19.62 87.05 18.77 87.04 18.17 87.06 Z M 105.31 87.48 C 104.25 87.49 103.35 87.56 102.4 87.64 C 101.44 87.73 100.64 87.83 99.57 88.01 C 98.49 88.18 97.05 88.45 95.95 88.67 C 94.85 88.9 94.13 88.63 92.96 89.38 C 91.79 90.14 89.68 92.48 88.92 93.22 C 88.16 93.96 88.45 93.69 88.37 93.82 C 88.29 93.95 88.38 93.96 88.44 94 C 88.49 94.05 87.92 94.28 88.71 94.09 C 89.51 93.9 91.91 93.18 93.2 92.85 C 94.48 92.52 95.29 92.33 96.42 92.12 C 97.55 91.9 98.93 91.69 99.96 91.57 C 100.99 91.45 102.62 91.41 102.62 91.41 C 102.62 91.41 96.09 97.07 94.36 98.29 C 92.64 99.51 92.88 98.59 92.25 98.75 C 91.62 98.9 91.1 99.06 90.6 99.24 C 90.1 99.42 89.65 99.63 89.26 99.84 C 88.88 100.05 88.55 100.28 88.29 100.52 C 88.04 100.77 87.83 101.08 87.74 101.31 C 87.64 101.54 87.65 101.71 87.73 101.91 C 87.81 102.11 87.98 102.33 88.22 102.51 C 88.45 102.7 89.14 103 89.14 103 C 89.14 103 86.96 105.09 86.18 105.9 C 85.39 106.7 84.85 107.31 84.44 107.83 C 84.03 108.34 83.86 108.68 83.72 108.97 C 83.58 109.27 83.61 109.42 83.61 109.58 C 83.62 109.73 83.64 109.83 83.76 109.9 C 83.87 109.98 84.09 110.05 84.31 110.02 C 84.53 109.99 84.43 110.19 85.1 109.72 C 85.76 109.24 87.66 107.7 88.27 107.16 C 88.88 106.63 88.67 106.72 88.74 106.5 C 88.81 106.28 88.26 106.36 88.69 105.83 C 89.12 105.31 90.47 103.75 91.31 103.36 C 92.15 102.98 92.85 103.53 93.75 103.54 C 94.64 103.55 95.67 103.52 96.66 103.44 C 97.64 103.36 98.65 103.25 99.64 103.08 C 100.64 102.91 101.61 102.71 102.63 102.42 C 103.66 102.13 104.95 101.66 105.78 101.33 C 106.6 101.01 106.94 100.83 107.59 100.48 C 108.24 100.12 108.99 99.7 109.69 99.19 C 110.4 98.69 111.18 98.06 111.79 97.44 C 112.4 96.83 112.92 96.2 113.35 95.51 C 113.78 94.83 114.17 94.01 114.38 93.34 C 114.59 92.66 114.61 91.92 114.62 91.47 C 114.63 91.01 114.54 90.88 114.46 90.62 C 114.38 90.36 114.28 90.13 114.14 89.9 C 113.99 89.67 113.78 89.42 113.59 89.23 C 113.4 89.05 113.39 88.99 113.01 88.8 C 112.64 88.6 112.07 88.28 111.36 88.08 C 110.66 87.88 109.78 87.69 108.77 87.59 C 107.76 87.49 106.37 87.47 105.31 87.48 Z M 156.98 88.14 C 156.66 88.19 156.41 88.21 155.88 88.44 C 155.34 88.67 154.47 89.11 153.75 89.52 C 153.03 89.93 152.51 90.26 151.55 90.91 C 150.59 91.55 149.26 92.48 148.01 93.39 C 146.76 94.3 145.18 95.48 144.06 96.36 C 142.94 97.23 142.08 97.96 141.3 98.65 C 140.53 99.35 140.01 99.84 139.41 100.52 C 138.81 101.21 138.45 102.17 137.71 102.75 C 136.97 103.34 135.61 103.76 134.96 104.03 C 134.3 104.31 134.13 104.33 133.78 104.4 C 133.42 104.47 133.08 104.48 132.83 104.45 C 132.59 104.42 132.32 104.2 132.32 104.2 C 132.32 104.2 132.21 103.91 132.33 103.66 C 132.45 103.41 132.72 103.05 133.04 102.7 C 133.35 102.34 133.43 102.18 134.24 101.55 C 135.05 100.91 137.23 99.46 137.89 98.89 C 138.56 98.33 138.16 98.44 138.22 98.17 C 138.27 97.9 138.24 97.48 138.2 97.26 C 138.15 97.05 138.09 96.97 137.95 96.89 C 137.8 96.81 138.3 96.73 137.32 96.8 C 136.33 96.87 132.05 97.28 132.05 97.28 C 132.05 97.28 132.8 96.45 132.94 96.24 C 133.08 96.02 132.88 95.99 132.88 95.99 C 132.88 95.99 132.82 95.91 132.6 95.94 C 132.38 95.98 131.89 96.09 131.57 96.21 C 131.26 96.32 131.13 96.38 130.71 96.64 C 130.29 96.9 129.5 97.45 129.06 97.78 C 128.62 98.12 128.37 98.35 128.08 98.65 C 127.79 98.95 127.49 99.29 127.32 99.56 C 127.14 99.82 127.08 100.03 127.05 100.22 C 127.02 100.41 127.01 100.55 127.16 100.7 C 127.3 100.85 127.92 101.13 127.92 101.13 C 127.92 101.13 126.36 102.46 125.68 102.91 C 124.99 103.37 124.41 103.6 123.79 103.87 C 123.17 104.13 122.45 104.4 121.98 104.53 C 121.51 104.66 121.23 104.66 120.96 104.65 C 120.69 104.63 120.48 104.52 120.35 104.45 C 120.21 104.37 120.18 104.34 120.15 104.2 C 120.11 104.07 120.06 103.91 120.14 103.66 C 120.22 103.41 120.03 103.28 120.62 102.7 C 121.2 102.11 123.06 100.68 123.65 100.16 C 124.25 99.64 124.09 99.75 124.18 99.55 C 124.28 99.36 124.26 99.29 124.22 99.01 C 124.18 98.73 123.94 97.87 123.94 97.87 C 123.94 97.87 124.73 97.64 124.97 97.53 C 125.21 97.42 125.31 97.36 125.38 97.2 C 125.46 97.05 125.46 96.81 125.39 96.6 C 125.33 96.39 125.13 96.08 124.99 95.93 C 124.85 95.79 124.8 95.75 124.58 95.72 C 124.35 95.69 124.26 95.63 123.63 95.73 C 123 95.84 121.9 96.02 120.8 96.34 C 119.7 96.67 118.38 97.09 117.03 97.67 C 115.68 98.26 113.77 99.25 112.7 99.84 C 111.63 100.42 111.13 100.79 110.6 101.19 C 110.07 101.58 109.77 101.92 109.53 102.21 C 109.29 102.5 109.26 102.65 109.15 102.94 C 109.03 103.23 108.89 103.6 108.84 103.96 C 108.78 104.33 108.74 104.68 108.82 105.11 C 108.91 105.54 109.2 106.23 109.36 106.56 C 109.52 106.89 109.64 106.94 109.79 107.08 C 109.94 107.21 110.09 107.32 110.26 107.37 C 110.43 107.42 110.59 107.4 110.81 107.36 C 111.04 107.32 111.14 107.34 111.6 107.13 C 112.06 106.92 112.42 106.8 113.56 106.1 C 114.71 105.4 118.44 102.92 118.44 102.92 C 118.44 102.92 117.05 104.86 116.68 105.53 C 116.31 106.21 116.26 106.65 116.2 106.98 C 116.14 107.31 116.23 107.39 116.3 107.52 C 116.37 107.66 116.43 107.73 116.63 107.79 C 116.83 107.85 117.24 107.87 117.5 107.86 C 117.76 107.85 117.71 107.9 118.21 107.73 C 118.7 107.56 119.61 107.25 120.49 106.82 C 121.36 106.39 122.22 105.91 123.47 105.13 C 124.73 104.36 126.92 102.97 128.04 102.17 C 129.15 101.38 129.14 100.76 130.16 100.36 C 131.18 99.96 134.17 99.78 134.17 99.78 C 134.17 99.78 131.74 101.7 130.93 102.45 C 130.11 103.21 129.63 103.86 129.29 104.33 C 128.94 104.79 128.97 104.94 128.88 105.23 C 128.79 105.52 128.74 105.83 128.74 106.08 C 128.74 106.32 128.79 106.51 128.87 106.68 C 128.95 106.85 129.07 107 129.22 107.11 C 129.36 107.22 129.58 107.3 129.77 107.35 C 129.95 107.39 129.96 107.43 130.32 107.36 C 130.67 107.3 131.29 107.18 131.89 106.94 C 132.49 106.69 133.08 106.39 133.93 105.91 C 134.79 105.43 137 104.06 137 104.06 C 137 104.06 136.61 105.32 136.52 105.71 C 136.42 106.11 136.42 106.23 136.45 106.44 C 136.48 106.65 136.59 106.85 136.69 106.96 C 136.78 107.06 136.9 107.05 137 107.05 C 137.11 107.06 136.54 107.53 137.32 107 C 138.09 106.47 141.64 103.88 141.64 103.88 C 141.64 103.88 142.27 105.66 142.48 106.14 C 142.68 106.61 142.71 106.55 142.87 106.74 C 143.03 106.93 143.24 107.12 143.45 107.26 C 143.67 107.4 143.9 107.52 144.16 107.6 C 144.42 107.67 144.75 107.7 145.02 107.7 C 145.3 107.71 145.56 107.66 145.81 107.61 C 146.06 107.55 145.99 107.63 146.52 107.37 C 147.04 107.12 147.93 106.72 148.96 106.09 C 149.99 105.46 152.03 104.18 152.7 103.6 C 153.37 103.03 152.97 102.65 152.97 102.65 C 152.97 102.65 150.15 104.23 149.35 104.64 C 148.55 105.05 148.5 105.02 148.17 105.13 C 147.84 105.24 147.63 105.29 147.38 105.32 C 147.13 105.35 146.88 105.35 146.67 105.32 C 146.47 105.29 146.29 105.22 146.12 105.13 C 145.96 105.03 145.85 104.93 145.71 104.75 C 145.57 104.56 145.27 104.02 145.27 104.02 C 145.27 104.02 149.23 102.21 150.29 101.69 C 151.35 101.17 151.22 101.18 151.63 100.9 C 152.04 100.63 152.44 100.33 152.76 100.04 C 153.07 99.74 153.33 99.43 153.53 99.13 C 153.73 98.84 153.85 98.58 153.94 98.29 C 154.03 98 154.06 97.6 154.07 97.38 C 154.08 97.16 154.05 97.09 154 96.96 C 153.94 96.83 153.87 96.68 153.75 96.6 C 153.63 96.51 153.53 96.45 153.28 96.45 C 153.03 96.45 152.89 96.38 152.26 96.58 C 151.63 96.78 150.62 97.12 149.51 97.66 C 148.39 98.21 147.26 98.83 145.57 99.84 C 143.88 100.85 139.36 103.72 139.36 103.72 C 139.36 103.72 137.79 104.04 139.68 102.53 C 141.56 101.02 147.84 96.77 150.69 94.68 C 153.53 92.6 155.57 90.97 156.77 90.02 C 157.96 89.07 157.65 89.22 157.87 88.99 C 158.08 88.76 158.02 88.74 158.03 88.63 C 158.04 88.52 157.99 88.4 157.95 88.33 C 157.91 88.26 157.93 88.23 157.76 88.2 C 157.6 88.17 157.29 88.1 156.98 88.14 Z M 103.85 91.35 C 103.85 91.35 107.65 91.45 108.69 91.51 C 109.73 91.58 109.67 91.64 110.1 91.75 C 110.54 91.86 110.98 92 111.28 92.16 C 111.59 92.33 111.81 92.58 111.95 92.73 C 112.08 92.89 112.08 92.95 112.11 93.1 C 112.13 93.25 112.19 93.38 112.1 93.64 C 112.02 93.9 111.85 94.32 111.62 94.67 C 111.4 95.01 111.08 95.37 110.76 95.69 C 110.44 96.02 110.17 96.26 109.71 96.6 C 109.25 96.95 108.61 97.4 107.98 97.76 C 107.35 98.12 106.54 98.48 105.94 98.73 C 105.33 98.99 104.98 99.1 104.36 99.28 C 103.75 99.46 103 99.67 102.24 99.82 C 101.48 99.97 100.68 100.1 99.8 100.18 C 98.92 100.26 97.82 100.3 96.97 100.31 C 96.12 100.32 94.7 100.22 94.7 100.22 C 94.7 100.22 95.48 99.06 96.26 98.74 C 97.05 98.43 98.79 98.42 99.41 98.31 C 100.03 98.21 99.88 98.18 99.98 98.11 C 100.09 98.04 100.04 97.88 100.04 97.88 C 100.04 97.88 100.28 97.77 99.8 97.79 C 99.32 97.8 97.16 97.99 97.16 97.99 C 97.16 97.99 101.52 94.24 102.58 93.28 C 103.64 92.31 103.3 92.51 103.51 92.19 C 103.72 91.87 103.85 91.35 103.85 91.35 Z M 37.43 92.07 C 37.63 92 37.86 92.07 37.86 92.07 C 37.86 92.07 37.85 92.45 37.7 92.73 C 37.54 93.02 37.26 93.37 36.92 93.76 C 36.57 94.15 36.4 94.4 35.65 95.09 C 34.9 95.78 33.36 97.15 32.4 97.9 C 31.45 98.64 29.9 99.56 29.9 99.56 C 29.9 99.56 30.62 98.41 31.2 97.69 C 31.78 96.96 32.7 95.92 33.4 95.21 C 34.1 94.5 34.83 93.86 35.37 93.4 C 35.91 92.94 36.31 92.69 36.65 92.47 C 36.99 92.24 37.23 92.14 37.43 92.07 Z M 69.83 98.29 C 70.82 97.96 70.03 98.29 70.03 98.29 C 70.03 98.29 68.15 99.79 67.06 100.58 C 65.97 101.38 64.63 102.38 63.47 103.07 C 62.3 103.77 60.79 104.44 60.09 104.76 C 59.38 105.08 59.43 104.98 59.22 105.01 C 59.01 105.04 58.82 104.93 58.82 104.93 C 58.82 104.93 58.6 104.63 58.61 104.39 C 58.62 104.14 58.71 103.78 58.89 103.48 C 59.06 103.18 59.37 102.85 59.67 102.57 C 59.98 102.3 60.27 102.1 60.71 101.83 C 61.16 101.57 61.8 101.25 62.37 100.99 C 62.93 100.73 62.85 100.72 64.1 100.27 C 65.34 99.82 68.85 98.62 69.83 98.29 Z M 122.45 98.29 C 123.41 97.97 122.65 98.29 122.65 98.29 C 122.65 98.29 120.85 99.72 119.76 100.52 C 118.66 101.32 116.93 102.51 116.08 103.07 C 115.23 103.63 115.23 103.59 114.67 103.87 C 114.1 104.15 113.17 104.57 112.7 104.76 C 112.23 104.95 112.04 104.98 111.83 105.01 C 111.63 105.04 111.44 104.93 111.44 104.93 C 111.44 104.93 111.22 104.63 111.23 104.39 C 111.24 104.14 111.33 103.78 111.5 103.48 C 111.68 103.18 111.98 102.85 112.29 102.57 C 112.59 102.3 112.95 102.07 113.33 101.84 C 113.71 101.6 114 101.43 114.59 101.16 C 115.18 100.89 115.56 100.69 116.87 100.21 C 118.18 99.73 121.49 98.61 122.45 98.29 Z M 150.3 98.89 C 150.59 98.82 150.84 98.86 150.84 98.86 C 150.84 98.86 150.93 98.92 150.91 99.01 C 150.89 99.11 150.83 99.27 150.72 99.44 C 150.61 99.6 150.59 99.67 150.25 99.98 C 149.9 100.28 149.24 100.85 148.64 101.26 C 148.05 101.68 147.3 102.12 146.67 102.48 C 146.05 102.83 144.87 103.38 144.87 103.38 C 144.87 103.38 144.35 103.08 144.08 102.98 C 143.81 102.89 143.27 102.82 143.27 102.82 C 143.27 102.82 143.9 102.28 144.47 101.89 C 145.04 101.51 145.9 100.95 146.67 100.51 C 147.45 100.08 148.51 99.56 149.11 99.29 C 149.72 99.02 150.01 98.96 150.3 98.89 Z"/>
  <path fill="#f2eee6" d="M 24.44 116.12 C 24.05 116.14 23.83 116.21 23.59 116.28 C 23.35 116.35 23.23 116.37 22.99 116.54 C 22.74 116.7 22.31 117.09 22.12 117.3 C 21.92 117.51 21.9 117.6 21.82 117.79 C 21.74 117.98 21.67 118.18 21.63 118.41 C 21.59 118.63 21.56 118.89 21.57 119.15 C 21.58 119.41 21.61 119.7 21.7 119.95 C 21.78 120.2 21.9 120.45 22.08 120.66 C 22.25 120.87 22.47 121.05 22.74 121.2 C 23.02 121.35 23.19 121.42 23.71 121.57 C 24.24 121.72 25.4 121.96 25.89 122.1 C 26.39 122.24 26.5 122.32 26.68 122.42 C 26.85 122.51 26.88 122.58 26.94 122.67 C 27.01 122.75 27.05 122.76 27.06 122.91 C 27.07 123.07 27.05 123.42 26.99 123.59 C 26.93 123.77 26.82 123.87 26.68 123.98 C 26.54 124.08 26.37 124.17 26.13 124.23 C 25.9 124.29 25.53 124.33 25.29 124.34 C 25.04 124.35 24.86 124.33 24.68 124.3 C 24.5 124.27 24.37 124.26 24.2 124.17 C 24.02 124.08 23.8 124 23.64 123.78 C 23.48 123.55 23.23 122.81 23.23 122.81 C 23.23 122.81 21.47 122.81 21.47 122.81 C 21.47 122.81 21.46 123.39 21.51 123.65 C 21.57 123.92 21.7 124.19 21.81 124.4 C 21.92 124.6 22.03 124.73 22.18 124.89 C 22.34 125.05 22.55 125.22 22.74 125.35 C 22.94 125.47 23.14 125.57 23.35 125.65 C 23.56 125.73 23.76 125.79 24.02 125.84 C 24.27 125.89 24.58 125.94 24.86 125.95 C 25.14 125.97 25.43 125.97 25.71 125.95 C 25.99 125.93 26.31 125.88 26.56 125.83 C 26.8 125.78 26.97 125.72 27.16 125.64 C 27.35 125.56 27.51 125.49 27.71 125.35 C 27.9 125.2 28.19 124.93 28.34 124.77 C 28.5 124.6 28.54 124.58 28.64 124.33 C 28.74 124.09 28.9 123.58 28.95 123.28 C 29 122.99 28.97 122.78 28.94 122.54 C 28.91 122.31 28.87 122.09 28.76 121.86 C 28.66 121.64 28.5 121.4 28.31 121.21 C 28.13 121.02 27.9 120.87 27.65 120.74 C 27.39 120.61 27.33 120.58 26.8 120.43 C 26.26 120.28 24.94 119.99 24.44 119.84 C 23.94 119.7 23.95 119.69 23.78 119.58 C 23.61 119.47 23.51 119.36 23.45 119.21 C 23.38 119.06 23.38 118.81 23.4 118.65 C 23.42 118.5 23.5 118.39 23.57 118.28 C 23.64 118.18 23.66 118.12 23.83 118.03 C 24.01 117.94 24.35 117.8 24.62 117.76 C 24.89 117.72 25.22 117.73 25.47 117.78 C 25.72 117.82 25.95 117.9 26.13 118.01 C 26.32 118.13 26.48 118.28 26.59 118.47 C 26.7 118.66 26.79 119.15 26.79 119.15 C 26.79 119.15 26.56 119.17 26.86 119.17 C 27.16 119.18 28.61 119.17 28.61 119.17 C 28.61 119.17 28.61 118.63 28.57 118.41 C 28.54 118.19 28.48 118.04 28.39 117.85 C 28.3 117.67 28.16 117.45 28.04 117.3 C 27.92 117.14 27.8 117.03 27.65 116.91 C 27.49 116.78 27.38 116.68 27.1 116.55 C 26.82 116.43 26.4 116.23 25.95 116.16 C 25.51 116.09 24.83 116.1 24.44 116.12 Z M 64.26 116.12 C 63.97 116.16 63.57 116.25 63.29 116.34 C 63.02 116.43 62.88 116.48 62.63 116.66 C 62.37 116.84 62.01 117.16 61.77 117.42 C 61.54 117.68 61.37 117.93 61.22 118.22 C 61.07 118.51 60.95 118.82 60.86 119.15 C 60.77 119.48 60.71 119.77 60.67 120.2 C 60.64 120.63 60.64 121.34 60.66 121.74 C 60.68 122.14 60.73 122.33 60.79 122.6 C 60.86 122.88 60.93 123.14 61.04 123.41 C 61.15 123.67 61.29 123.96 61.46 124.21 C 61.62 124.46 61.81 124.68 62.02 124.89 C 62.24 125.1 62.51 125.31 62.75 125.46 C 62.99 125.6 63.19 125.69 63.48 125.77 C 63.76 125.85 64.1 125.92 64.44 125.96 C 64.79 125.99 65.21 125.99 65.53 125.97 C 65.86 125.95 66.12 125.9 66.38 125.84 C 66.64 125.77 66.88 125.69 67.11 125.57 C 67.34 125.46 67.53 125.37 67.77 125.16 C 68.02 124.94 68.36 124.57 68.58 124.27 C 68.8 123.97 68.94 123.64 69.07 123.35 C 69.19 123.05 69.25 122.82 69.31 122.48 C 69.37 122.14 69.42 121.66 69.44 121.31 C 69.46 120.96 69.45 120.72 69.42 120.38 C 69.39 120.04 69.33 119.6 69.25 119.27 C 69.17 118.94 69.05 118.64 68.95 118.41 C 68.85 118.17 68.79 118.06 68.64 117.85 C 68.5 117.65 68.26 117.38 68.08 117.19 C 67.89 117 67.74 116.86 67.53 116.72 C 67.32 116.58 67.05 116.44 66.8 116.35 C 66.56 116.25 66.37 116.2 66.08 116.16 C 65.79 116.11 65.35 116.08 65.05 116.08 C 64.75 116.07 64.56 116.08 64.26 116.12 Z M 130.96 116.12 C 130.67 116.16 130.26 116.25 129.99 116.34 C 129.72 116.43 129.58 116.48 129.32 116.66 C 129.07 116.84 128.7 117.16 128.47 117.42 C 128.23 117.68 128.07 117.93 127.91 118.22 C 127.76 118.51 127.65 118.82 127.56 119.15 C 127.47 119.48 127.4 119.77 127.37 120.2 C 127.34 120.63 127.34 121.34 127.36 121.74 C 127.38 122.14 127.43 122.33 127.49 122.6 C 127.55 122.88 127.63 123.14 127.74 123.41 C 127.85 123.67 127.99 123.96 128.15 124.21 C 128.32 124.46 128.51 124.68 128.72 124.89 C 128.94 125.1 129.2 125.31 129.45 125.46 C 129.69 125.6 129.89 125.69 130.17 125.77 C 130.45 125.85 130.8 125.92 131.14 125.96 C 131.48 125.99 131.91 125.99 132.23 125.97 C 132.55 125.95 132.81 125.9 133.08 125.84 C 133.34 125.77 133.57 125.69 133.8 125.57 C 134.04 125.46 134.22 125.37 134.47 125.16 C 134.71 124.94 135.06 124.57 135.28 124.27 C 135.49 123.97 135.64 123.64 135.76 123.35 C 135.88 123.05 135.94 122.82 136 122.48 C 136.07 122.14 136.11 121.66 136.13 121.31 C 136.15 120.96 136.15 120.72 136.12 120.38 C 136.09 120.04 136.02 119.6 135.95 119.27 C 135.87 118.94 135.74 118.64 135.64 118.41 C 135.54 118.17 135.48 118.06 135.34 117.85 C 135.19 117.65 134.96 117.38 134.77 117.19 C 134.59 117 134.44 116.86 134.23 116.72 C 134.02 116.58 133.74 116.44 133.5 116.35 C 133.26 116.25 133.07 116.2 132.77 116.16 C 132.48 116.11 132.05 116.08 131.75 116.08 C 131.44 116.07 131.25 116.08 130.96 116.12 Z M 140.52 116.12 C 140.13 116.14 139.92 116.21 139.67 116.28 C 139.43 116.35 139.26 116.42 139.07 116.53 C 138.88 116.64 138.68 116.78 138.52 116.92 C 138.37 117.06 138.25 117.19 138.14 117.36 C 138.02 117.52 137.92 117.7 137.83 117.91 C 137.75 118.13 137.68 118.41 137.65 118.65 C 137.62 118.9 137.63 119.17 137.65 119.4 C 137.68 119.62 137.7 119.8 137.79 120.01 C 137.87 120.23 138.04 120.51 138.16 120.68 C 138.28 120.85 138.39 120.92 138.52 121.02 C 138.66 121.12 138.7 121.17 138.95 121.27 C 139.2 121.37 139.53 121.5 140.04 121.64 C 140.54 121.78 141.52 121.97 141.97 122.1 C 142.42 122.23 142.58 122.34 142.74 122.42 C 142.91 122.5 142.9 122.52 142.96 122.6 C 143.03 122.69 143.1 122.76 143.12 122.92 C 143.14 123.07 143.13 123.36 143.08 123.53 C 143.03 123.7 142.94 123.81 142.82 123.92 C 142.71 124.02 142.65 124.1 142.4 124.17 C 142.15 124.24 141.64 124.33 141.31 124.34 C 140.98 124.35 140.63 124.28 140.4 124.22 C 140.17 124.16 140.06 124.09 139.92 123.97 C 139.77 123.86 139.65 123.72 139.55 123.53 C 139.45 123.34 139.31 122.81 139.31 122.81 C 139.31 122.81 137.86 122.81 137.56 122.81 C 137.25 122.82 137.49 122.85 137.49 122.85 C 137.49 122.85 137.5 123.26 137.54 123.47 C 137.58 123.67 137.63 123.88 137.72 124.09 C 137.81 124.29 137.95 124.53 138.09 124.7 C 138.22 124.88 138.35 125 138.53 125.14 C 138.7 125.27 138.88 125.41 139.13 125.52 C 139.38 125.64 139.74 125.76 140.04 125.84 C 140.33 125.91 140.59 125.93 140.88 125.95 C 141.18 125.97 141.51 125.97 141.79 125.95 C 142.07 125.93 142.35 125.89 142.58 125.84 C 142.81 125.79 142.98 125.74 143.18 125.66 C 143.39 125.57 143.6 125.46 143.79 125.34 C 143.98 125.21 144.16 125.05 144.3 124.89 C 144.45 124.73 144.57 124.56 144.67 124.4 C 144.77 124.23 144.84 124.09 144.89 123.9 C 144.95 123.72 145 123.49 145.02 123.28 C 145.04 123.08 145.05 122.9 145.02 122.67 C 144.99 122.43 144.94 122.11 144.83 121.86 C 144.71 121.61 144.55 121.36 144.33 121.16 C 144.12 120.96 144.18 120.88 143.55 120.67 C 142.91 120.45 141.14 120.03 140.52 119.85 C 139.91 119.67 140.01 119.68 139.86 119.59 C 139.7 119.51 139.65 119.42 139.58 119.33 C 139.52 119.25 139.48 119.21 139.47 119.09 C 139.45 118.96 139.45 118.73 139.48 118.59 C 139.51 118.45 139.6 118.33 139.67 118.24 C 139.75 118.14 139.81 118.09 139.92 118.02 C 140.03 117.95 140.16 117.88 140.34 117.83 C 140.52 117.79 140.76 117.75 141.01 117.75 C 141.25 117.75 141.56 117.77 141.79 117.83 C 142.02 117.9 142.25 118.04 142.4 118.15 C 142.54 118.26 142.58 118.3 142.66 118.47 C 142.75 118.64 142.88 119.17 142.88 119.17 C 142.88 119.17 144.7 119.17 144.7 119.17 C 144.7 119.17 144.7 118.7 144.66 118.47 C 144.61 118.24 144.51 117.99 144.42 117.79 C 144.33 117.59 144.24 117.45 144.11 117.3 C 143.98 117.14 143.82 116.99 143.65 116.86 C 143.49 116.74 143.39 116.64 143.12 116.52 C 142.85 116.41 142.47 116.23 142.03 116.16 C 141.6 116.09 140.91 116.1 140.52 116.12 Z M 51.13 116.18 C 50.73 116.17 50.51 116.22 50.22 116.29 C 49.93 116.36 49.63 116.47 49.37 116.59 C 49.12 116.72 48.92 116.85 48.71 117.03 C 48.49 117.21 48.27 117.43 48.09 117.67 C 47.9 117.91 47.74 118.18 47.6 118.47 C 47.47 118.76 47.37 119.06 47.28 119.4 C 47.2 119.73 47.14 120.13 47.11 120.51 C 47.09 120.89 47.09 121.33 47.11 121.68 C 47.13 122.03 47.17 122.29 47.24 122.6 C 47.31 122.92 47.42 123.3 47.54 123.59 C 47.66 123.88 47.79 124.1 47.95 124.33 C 48.12 124.57 48.32 124.8 48.53 124.99 C 48.73 125.18 48.96 125.34 49.19 125.48 C 49.42 125.61 49.65 125.7 49.92 125.78 C 50.19 125.86 50.51 125.93 50.83 125.96 C 51.14 125.99 51.51 125.99 51.8 125.97 C 52.08 125.94 52.31 125.89 52.52 125.84 C 52.73 125.78 52.82 125.77 53.07 125.64 C 53.31 125.51 53.69 125.32 53.97 125.04 C 54.26 124.76 54.61 124.26 54.79 123.96 C 54.97 123.67 55 123.52 55.08 123.28 C 55.15 123.05 55.24 122.54 55.24 122.54 C 55.24 122.54 53.37 122.51 53.37 122.51 C 53.37 122.51 53.02 123.34 52.84 123.59 C 52.66 123.85 52.45 123.94 52.28 124.05 C 52.11 124.15 51.96 124.19 51.8 124.22 C 51.63 124.25 51.46 124.25 51.31 124.25 C 51.16 124.25 51.04 124.25 50.89 124.22 C 50.74 124.18 50.6 124.17 50.4 124.04 C 50.21 123.92 49.91 123.73 49.71 123.47 C 49.52 123.21 49.34 122.76 49.24 122.48 C 49.14 122.2 49.14 122.14 49.12 121.8 C 49.1 121.46 49.07 120.88 49.12 120.44 C 49.17 120.01 49.3 119.53 49.42 119.21 C 49.54 118.89 49.72 118.7 49.85 118.53 C 49.98 118.36 50.07 118.3 50.22 118.2 C 50.37 118.1 50.56 118 50.77 117.95 C 50.97 117.9 51.2 117.88 51.43 117.89 C 51.66 117.9 51.97 117.96 52.16 118.01 C 52.34 118.07 52.41 118.12 52.55 118.22 C 52.69 118.33 52.83 118.44 52.97 118.65 C 53.11 118.87 53.37 119.49 53.37 119.49 C 53.37 119.49 55.27 119.46 55.27 119.46 C 55.27 119.46 55.26 119.18 55.2 118.96 C 55.14 118.75 55.04 118.43 54.9 118.16 C 54.76 117.89 54.51 117.56 54.35 117.36 C 54.18 117.16 54.09 117.09 53.91 116.96 C 53.74 116.83 53.52 116.69 53.31 116.59 C 53.1 116.49 53.01 116.42 52.64 116.35 C 52.28 116.28 51.53 116.19 51.13 116.18 Z M 13.12 116.35 C 13.12 116.35 13.08 125.69 13.08 125.69 C 13.08 125.69 20.02 125.71 20.02 125.71 C 20.02 125.71 20.02 124.02 20.02 124.02 C 20.02 124.02 14.97 123.96 14.97 123.96 C 14.97 123.96 15 121.65 15 121.65 C 15 121.65 19.35 121.65 19.35 121.65 C 19.35 121.65 19.41 121.83 19.41 121.56 C 19.41 121.28 19.35 119.99 19.35 119.99 C 19.35 119.99 15 119.98 15 119.98 C 15 119.98 15 118.05 15 118.05 C 15 118.05 19.78 118.04 19.78 118.04 C 19.78 118.04 19.8 116.37 19.8 116.37 C 19.8 116.37 13.12 116.35 13.12 116.35 Z M 30.01 116.35 C 30.01 116.35 30.01 118.05 30.01 118.05 C 30.01 118.05 32.71 118.1 32.71 118.1 C 32.71 118.1 32.72 125.69 32.72 125.69 C 32.72 125.69 34.67 125.7 34.67 125.7 C 34.67 125.7 34.68 118.1 34.68 118.1 C 34.68 118.1 37.39 118.03 37.39 118.03 C 37.39 118.03 37.4 116.37 37.4 116.37 C 37.4 116.37 30.01 116.35 30.01 116.35 Z M 40.6 116.35 C 40.6 116.35 37.3 125.69 37.3 125.69 C 37.3 125.69 39.33 125.7 39.33 125.7 C 39.33 125.7 39.99 123.81 39.99 123.81 C 39.99 123.81 43.26 123.81 43.26 123.81 C 43.26 123.81 43.87 125.69 43.87 125.69 C 43.87 125.69 45.92 125.72 45.92 125.72 C 45.92 125.72 46.48 127.13 45.95 125.57 C 45.42 124.01 42.74 116.37 42.74 116.37 C 42.74 116.37 40.6 116.35 40.6 116.35 Z M 56.94 116.35 C 56.94 116.35 56.91 125.69 56.91 125.69 C 56.91 125.69 58.82 125.72 58.82 125.72 C 58.82 125.72 58.86 117.99 58.85 116.43 C 58.84 114.87 59.07 116.36 58.76 116.35 C 58.44 116.34 56.94 116.35 56.94 116.35 Z M 71.22 116.37 C 71.22 116.37 71.2 125.69 71.2 125.69 C 71.2 125.69 73.01 125.69 73.01 125.69 C 73.01 125.69 73.04 119.21 73.04 119.21 C 73.04 119.21 76.7 125.69 76.7 125.69 C 76.7 125.69 78.66 125.69 78.66 125.69 C 78.66 125.69 78.64 116.37 78.64 116.37 C 78.64 116.37 76.91 116.35 76.91 116.35 C 76.91 116.35 76.86 115.37 76.85 116.43 C 76.84 117.5 76.85 122.73 76.85 122.73 C 76.85 122.73 73.24 116.37 73.24 116.37 C 73.24 116.37 71.22 116.37 71.22 116.37 Z M 83.45 116.35 C 83.45 116.35 80.16 125.69 80.16 125.69 C 80.16 125.69 82.18 125.71 82.18 125.71 C 82.18 125.71 82.84 123.81 82.84 123.81 C 82.84 123.81 86.11 123.81 86.11 123.81 C 86.11 123.81 86.78 125.72 86.78 125.72 C 86.78 125.72 88.83 125.7 88.83 125.7 C 88.83 125.7 86.19 117.99 85.64 116.43 C 85.1 114.87 85.93 116.37 85.57 116.35 C 85.2 116.34 83.45 116.35 83.45 116.35 Z M 90.35 116.37 C 90.35 116.37 90.33 125.69 90.33 125.69 C 90.33 125.69 92.14 125.69 92.14 125.69 C 92.14 125.69 92.16 118.19 92.16 118.19 C 92.16 118.19 93.82 125.69 93.82 125.69 C 93.82 125.69 95.71 125.69 95.71 125.69 C 95.71 125.69 97.37 118.2 97.37 118.2 C 97.37 118.2 97.4 125.69 97.4 125.69 C 97.4 125.69 99.18 125.72 99.18 125.72 C 99.18 125.72 99.19 116.37 99.19 116.37 C 99.19 116.37 96.44 116.37 96.44 116.37 C 96.44 116.37 94.77 123.51 94.77 123.51 C 94.77 123.51 93.14 116.37 93.14 116.37 C 93.14 116.37 90.35 116.37 90.35 116.37 Z M 101.42 116.35 C 101.42 116.35 101.39 125.69 101.39 125.69 C 101.39 125.69 108.32 125.72 108.32 125.72 C 108.32 125.72 108.32 124.01 108.32 124.01 C 108.32 124.01 103.28 123.96 103.28 123.96 C 103.28 123.96 103.3 121.66 103.3 121.66 C 103.3 121.66 106.92 121.67 107.66 121.65 C 108.4 121.63 107.73 121.83 107.74 121.56 C 107.75 121.28 107.72 120 107.72 120 C 107.72 120 103.3 119.97 103.3 119.97 C 103.3 119.97 103.28 118.1 103.28 118.1 C 103.28 118.1 108.08 118.05 108.08 118.05 C 108.08 118.05 108.1 116.37 108.1 116.37 C 108.1 116.37 101.42 116.35 101.42 116.35 Z M 110.2 116.35 C 110.2 116.35 110.16 125.69 110.16 125.69 C 110.16 125.69 111.97 125.69 111.97 125.69 C 111.97 125.69 112.02 119.24 112.02 119.24 C 112.02 119.24 115.65 125.68 115.65 125.68 C 115.65 125.68 117.58 125.72 117.58 125.72 C 117.58 125.72 117.6 116.37 117.6 116.37 C 117.6 116.37 115.81 116.37 115.81 116.37 C 115.81 116.37 115.77 122.75 115.77 122.75 C 115.77 122.75 112.2 116.38 112.2 116.38 C 112.2 116.38 110.2 116.35 110.2 116.35 Z M 119.04 116.35 C 119.04 116.35 119.04 118.05 119.04 118.05 C 119.04 118.05 121.73 118.1 121.73 118.1 C 121.73 118.1 121.73 125.69 121.73 125.69 C 121.73 125.69 123.64 125.72 123.64 125.72 C 123.64 125.72 123.68 118.1 123.68 118.1 C 123.68 118.1 126.38 118.04 126.38 118.04 C 126.38 118.04 126.42 116.69 126.42 116.41 C 126.42 116.13 127.59 116.36 126.36 116.35 C 125.13 116.34 119.04 116.35 119.04 116.35 Z M 64.65 117.79 C 64.9 117.78 65.43 117.8 65.65 117.83 C 65.88 117.86 65.88 117.88 66.02 117.96 C 66.16 118.03 66.32 118.08 66.5 118.27 C 66.69 118.46 66.96 118.74 67.12 119.09 C 67.28 119.43 67.4 119.86 67.45 120.32 C 67.5 120.78 67.49 121.42 67.43 121.86 C 67.38 122.31 67.23 122.7 67.12 122.98 C 67.01 123.25 66.89 123.37 66.75 123.53 C 66.62 123.69 66.47 123.82 66.32 123.92 C 66.17 124.03 66.01 124.11 65.84 124.17 C 65.66 124.23 65.55 124.29 65.29 124.29 C 65.03 124.29 64.5 124.22 64.26 124.17 C 64.02 124.12 63.98 124.06 63.84 123.98 C 63.7 123.89 63.59 123.83 63.44 123.65 C 63.29 123.48 63.07 123.23 62.93 122.91 C 62.79 122.59 62.66 122.18 62.61 121.74 C 62.55 121.3 62.59 120.61 62.61 120.26 C 62.64 119.91 62.67 119.85 62.74 119.64 C 62.8 119.44 62.9 119.2 62.98 119.02 C 63.07 118.85 63.15 118.73 63.26 118.59 C 63.38 118.46 63.5 118.32 63.66 118.2 C 63.81 118.09 64.04 117.97 64.2 117.9 C 64.37 117.83 64.41 117.8 64.65 117.79 Z M 131.35 117.79 C 131.59 117.78 132.12 117.8 132.35 117.83 C 132.58 117.86 132.57 117.88 132.71 117.96 C 132.86 118.03 133.01 118.08 133.2 118.27 C 133.38 118.46 133.66 118.74 133.82 119.09 C 133.97 119.43 134.09 119.86 134.14 120.32 C 134.2 120.78 134.19 121.42 134.13 121.86 C 134.08 122.31 133.93 122.7 133.81 122.98 C 133.7 123.25 133.58 123.37 133.45 123.53 C 133.32 123.69 133.17 123.82 133.02 123.92 C 132.86 124.03 132.7 124.11 132.53 124.17 C 132.36 124.23 132.25 124.29 131.99 124.29 C 131.73 124.29 131.2 124.22 130.96 124.17 C 130.72 124.12 130.67 124.06 130.54 123.98 C 130.4 123.89 130.29 123.83 130.14 123.65 C 129.98 123.48 129.76 123.23 129.62 122.91 C 129.48 122.59 129.35 122.18 129.3 121.74 C 129.25 121.3 129.29 120.61 129.31 120.26 C 129.33 119.91 129.37 119.85 129.43 119.64 C 129.49 119.44 129.59 119.2 129.68 119.02 C 129.77 118.85 129.85 118.73 129.96 118.59 C 130.07 118.46 130.2 118.32 130.35 118.2 C 130.51 118.09 130.73 117.97 130.9 117.9 C 131.06 117.83 131.11 117.8 131.35 117.79 Z M 41.61 118.65 C 41.61 118.65 42.73 122.11 42.73 122.11 C 42.73 122.11 40.54 122.16 40.54 122.16 C 40.54 122.16 40.33 122.63 40.51 122.05 C 40.69 121.47 41.61 118.65 41.61 118.65 Z M 84.47 118.65 C 84.47 118.65 84.44 118.38 84.62 118.96 C 84.8 119.55 85.57 122.15 85.57 122.15 C 85.57 122.15 83.36 122.11 83.36 122.11 C 83.36 122.11 84.47 118.65 84.47 118.65 Z"/>
</svg>