<svg xmlns="http://www.w3.org/2000/svg" viewBox="29.00 0.00 101.00 82.00" width="1010" height="820" fill-rule="evenodd">
  <title>Ultra Park</title>
  <path fill="#1b1918" d="M 29.00 41.00 a 50.50 41.00 0 1 0 101.00 0 a 50.50 41.00 0 1 0 -101.00 0 Z M 83.88 5.12 C 81.65 5.26 78.85 5.61 75.25 6.22 C 71.65 6.83 65.21 8.27 62.25 8.79 C 59.29 9.31 59.08 9.08 57.5 9.33 C 55.92 9.59 54.53 9.82 52.75 10.31 C 50.97 10.79 48.85 11.42 46.83 12.25 C 44.81 13.08 42.06 14.48 40.62 15.29 C 39.19 16.1 39.11 16.24 38.23 17.12 C 37.35 18.01 36.33 19.21 35.34 20.62 C 34.35 22.04 33.15 23.92 32.29 25.62 C 31.43 27.33 30.73 29.27 30.19 30.88 C 29.65 32.48 29.22 34.39 29.06 35.25 C 28.9 36.11 29.09 35.88 29.25 36.05 C 29.41 36.22 29.38 36.28 30 36.25 C 30.62 36.21 31.44 36.23 33 35.83 C 34.56 35.43 34.73 35.62 39.38 33.87 C 44.02 32.12 55.33 27.44 60.88 25.34 C 66.42 23.24 70.35 21.97 72.62 21.25 C 74.9 20.53 74.07 20.98 74.5 21.02 C 74.93 21.06 75.09 21.19 75.18 21.5 C 75.27 21.81 75.39 22.29 75.03 22.88 C 74.66 23.46 75.8 22.42 73 24.99 C 70.2 27.55 62.83 34.01 58.25 38.25 C 53.66 42.49 48.33 47.61 45.5 50.45 C 42.67 53.29 42.46 53.73 41.25 55.29 C 40.04 56.84 38.92 58.62 38.25 59.78 C 37.58 60.94 37.36 61.57 37.21 62.25 C 37.06 62.93 36.49 62.77 37.35 63.88 C 38.2 64.98 40.35 67.21 42.34 68.88 C 44.32 70.54 47.91 73 49.27 73.88 C 50.63 74.75 50.02 74.16 50.5 74.15 C 50.98 74.14 51.19 74.2 52.12 73.81 C 53.06 73.42 54.38 72.8 56.12 71.81 C 57.88 70.81 58.69 70.5 62.62 67.84 C 66.56 65.17 74.06 59.96 79.75 55.8 C 85.44 51.64 93.65 45.27 96.75 42.86 C 99.85 40.45 97.83 41.76 98.38 41.35 C 98.92 40.93 99.66 40.52 100 40.38 C 100.34 40.24 100.44 40.5 100.44 40.5 C 100.44 40.5 101.88 38.94 99.85 41.75 C 97.82 44.56 90.52 54.19 88.26 57.38 C 85.99 60.56 86.76 59.88 86.26 60.88 C 85.77 61.88 85.56 62.15 85.28 63.38 C 84.99 64.6 84.6 67 84.56 68.25 C 84.51 69.5 84.73 70.08 85 70.88 C 85.27 71.67 85.63 72.34 86.2 73 C 86.76 73.66 87.49 74.35 88.38 74.84 C 89.26 75.33 90.04 75.78 91.5 75.96 C 92.96 76.15 95.46 76.15 97.12 75.96 C 98.79 75.76 99.92 75.32 101.5 74.8 C 103.08 74.28 104.44 73.82 106.62 72.83 C 108.81 71.83 112.48 70 114.62 68.82 C 116.77 67.64 118.15 66.91 119.52 65.75 C 120.9 64.59 121.84 63.22 122.88 61.87 C 123.91 60.51 125.28 58.47 125.74 57.62 C 126.2 56.78 125.62 56.8 125.62 56.8 C 125.62 56.8 126.02 56.26 124.38 57.27 C 122.73 58.28 117.81 61.6 115.75 62.87 C 113.69 64.14 113.44 64.21 112 64.88 C 110.56 65.55 108.46 66.49 107.12 66.91 C 105.79 67.32 104.94 67.34 104 67.36 C 103.06 67.37 102.16 67.23 101.5 66.99 C 100.84 66.74 100.45 66.35 100.06 65.88 C 99.66 65.4 99.27 64.75 99.13 64.12 C 99 63.5 99.06 62.89 99.25 62.11 C 99.44 61.34 99.45 61 100.28 59.5 C 101.12 58 102.4 55.64 104.25 53.13 C 106.1 50.63 107.62 48.8 111.38 44.45 C 115.13 40.09 124.2 30.02 126.76 27 C 129.32 23.98 127.23 27.24 126.75 26.3 C 126.27 25.36 124.71 22.64 123.88 21.34 C 123.04 20.04 122.48 19.36 121.75 18.5 C 121.02 17.64 119.5 16.18 119.5 16.18 C 119.5 16.18 121.33 14.4 116.38 18.33 C 111.42 22.27 96.5 34.55 89.75 39.8 C 83 45.04 79.73 47.15 75.88 49.82 C 72.02 52.49 69.09 54.32 66.62 55.83 C 64.16 57.34 62.56 58.17 61.08 58.88 C 59.6 59.58 58.55 59.86 57.75 60.05 C 56.95 60.24 56.65 60.08 56.25 60.01 C 55.85 59.94 55.61 59.85 55.38 59.62 C 55.14 59.39 54.89 59.02 54.84 58.62 C 54.79 58.23 54.51 58.17 55.07 57.25 C 55.63 56.33 56.13 55.44 58.2 53.12 C 60.26 50.81 63.03 47.73 67.48 43.38 C 71.92 39.02 81.16 30.6 84.89 27 C 88.62 23.4 88.71 23.11 89.88 21.75 C 91.04 20.4 91.37 19.69 91.88 18.85 C 92.38 18.02 92.64 17.52 92.88 16.75 C 93.12 15.98 93.24 15.02 93.32 14.25 C 93.4 13.48 93.45 12.96 93.36 12.12 C 93.27 11.29 93.08 10.02 92.8 9.25 C 92.53 8.48 92.08 7.96 91.72 7.5 C 91.35 7.04 91.15 6.82 90.62 6.47 C 90.1 6.12 89.71 5.6 88.58 5.38 C 87.46 5.15 86.1 4.98 83.88 5.12 Z"/>
</svg>